# Blender 3.5.1
# www.blender.org
mtllib apriltag_id1.mtl
o Cube
v -0.110000 0.085000 -0.000500
v -0.110000 0.085000 0.000500
v 0.110000 0.085000 -0.000500
v 0.110000 0.085000 0.000500
v -0.110000 -0.085000 -0.000500
v -0.110000 -0.085000 0.000500
v 0.110000 -0.085000 -0.000500
v 0.110000 -0.085000 0.000500
vn -0.0000 1.0000 -0.0000
vn 1.0000 -0.0000 -0.0000
vn -0.0000 -1.0000 -0.0000
vn -1.0000 -0.0000 -0.0000
vn -0.0000 -0.0000 -1.0000
vn -0.0000 -0.0000 1.0000
vt 1.050850 0.492683
vt 1.163972 0.492683
vt 1.163972 0.123802
vt 1.050850 0.527648
vt 1.163972 0.527648
vt 0.001385 0.002048
vt 2.050850 0.492683
vt 1.163972 0.492683
vt 1.163972 0.896529
vt 2.050850 0.527648
vt 1.163972 0.527648
vt 0.001385 0.997952
vt 1.050850 0.492683
vt 1.937728 0.492683
vt 1.937728 0.123802
vt 1.050850 0.527648
vt 1.937728 0.527648
vt 0.998615 0.002048
vt 1.937728 0.492683
vt 2.050850 0.492683
vt 1.937728 0.896529
vt 1.937728 0.527648
vt 2.050850 0.527648
vt 0.998615 0.997952
s 0
usemtl Material.001
f 1/1/1 2/4/1 4/10/1 3/7/1
f 3/8/2 4/11/2 8/22/2 7/19/2
f 7/20/3 8/23/3 6/16/3 5/13/3
f 5/14/4 6/17/4 2/5/4 1/2/4
f 3/9/5 7/21/5 5/15/5 1/3/5
f 8/24/6 4/12/6 2/6/6 6/18/6
